<?xml version="1.0" encoding="iso-8859-1"?>
<!-- Generator: Adobe Illustrator 19.0.0, SVG Export Plug-In . SVG Version: 6.00 Build 0)  -->
<svg version="1.1" id="Layer_1" xmlns="http://www.w3.org/2000/svg" xmlns:xlink="http://www.w3.org/1999/xlink" x="0px" y="0px"
	 viewBox="0 0 512 512" style="enable-background:new 0 0 512 512;" xml:space="preserve">
<circle style="fill:#68533E;" cx="256" cy="256" r="256"/>
<path style="fill:#57442F;" d="M503.672,320.972l-184.17-184.17L214.483,273.67l-92.948,106.451l131.846,131.846
	c0.874,0.009,1.743,0.033,2.619,0.033C374.934,512,474.915,430.892,503.672,320.972z"/>
<path style="fill:#FFD15D;" d="M121.535,380.121c0-74.262,60.202-134.465,134.465-134.465s134.465,60.202,134.465,134.465H121.535z"
	/>
<path style="fill:#F9B54C;" d="M256.288,245.663v134.458h134.177C390.465,305.955,330.418,245.82,256.288,245.663z"/>
<circle style="fill:#F4E3C3;" cx="256" cy="199.111" r="85.333"/>
<path style="fill:#FED8B2;" d="M341.333,199.111c0-47.032-38.05-85.17-85.045-85.326v170.653
	C303.283,284.281,341.333,246.143,341.333,199.111z"/>
<path style="fill:#4A6475;" d="M291.013,248.242h-70.025c9.656,7.552,21.802,12.067,35.013,12.067
	C269.21,260.31,281.357,255.795,291.013,248.242z"/>
<g>
	<path style="fill:#324A5E;" d="M256.288,248.242v12.062c13.096-0.065,25.14-4.563,34.725-12.062H256.288z"/>
	<circle style="fill:#324A5E;" cx="214.488" cy="219.798" r="8.045"/>
</g>
<circle style="fill:#2B3B4E;" cx="297.512" cy="219.798" r="8.045"/>
<path style="fill:#FC6F58;" d="M227.271,171.549c0,0,47.301,30.384,114.916,31.01c0,0,2.612-90.21-86.187-93.031
	c-88.798-2.82-86.187,93.031-86.187,93.031S194.479,200.052,227.271,171.549z"/>
<path style="fill:#F1543F;" d="M256.288,109.542v76.079c20.397,8.044,50.331,16.608,85.899,16.937
	C342.187,202.559,344.788,112.55,256.288,109.542z"/>
<g>
</g>
<g>
</g>
<g>
</g>
<g>
</g>
<g>
</g>
<g>
</g>
<g>
</g>
<g>
</g>
<g>
</g>
<g>
</g>
<g>
</g>
<g>
</g>
<g>
</g>
<g>
</g>
<g>
</g>
</svg>
